# xmcd
#
# Track frame offsets:
#	150
#	9752
#	23460
#	36142
#	48240
#	63850
#	79192
#	95590
#	114937
#	134037
#	157585
#	174710
#	188777
#	206867
#	217737
#
# Disc length: 3067 seconds
#
# Revision: 2
# Processed by: cddbd v1.5.2PL0 Copyright (c) Steve Scherf et al.
# Submitted via: EasyCDDAExtractor 15.2.5.1
#
DISCID=b60bf90f
DTITLE=Various Artist - ORIGINAL SOUNDTRACK ROMANCE
DYEAR=1982
DGENRE=Pop
TTITLE0=THE JONG DUNBAR THEME-JOHN BARRY
TTITLE1=OH PRETTY WOMAN-ROY ORBISON
TTITLE2=HAZY SHADE OF WINTER-BANGLES
TTITLE3=IT HAD TO BE YOU-HARRY CONNICK,JR.
TTITLE4=THE HEART IS A LONELY HUNTER-PERCY FAITH&HIS ORCHESTRA
TTITLE5=TWINS-PHILIPS BAILEY and THE LITTLE RICHARD
TTITLE6=TONIGHT
TTITLE7=CAVATINA-JOHN WILLIAMS
TTITLE8=TAKE MY BREATH AWAY-BERLIN
TTITLE9=PROMISE ME YOU'LL REMENBER
TTITLE10=WHEN A CHILD IS BORN-JONNY MATHIS
TTITLE11=BROWN EYED GIRL-VAN MORRISON
TTITLE12=ALL I NEED IS YOU-BIG TROUBLE
TTITLE13=THE THEME FROM"A SUMMER PLACE"-PERCY FAITH AND HIS ORCHESTRA
TTITLE14=MOON RIVER-ANDY WILLIAMS
EXTD=
EXTT0=
EXTT1=
EXTT2=
EXTT3=
EXTT4=
EXTT5=
EXTT6=
EXTT7=
EXTT8=
EXTT9=
EXTT10=
EXTT11=
EXTT12=
EXTT13=
EXTT14=
PLAYORDER=
